# xmcd
#
# Track frame offsets: 
#        150
#        19558
#        38823
#        60980
#        91595
#        108810
#        125893
#        140445
#        154338
#        173283
#
# Disc length: 2544 seconds
#
# Revision: 3
# Processed by: cddbd v1.5.2PL0 Copyright (c) Steve Scherf et al.
# Submitted via: ExactAudioCopy v1.0b3
#
DISCID=6f09ee0a
DTITLE=Chris Rea - Dancing Down The Stony Road [CD2)
DYEAR=2002
DGENRE=Rock
TTITLE0=Ride On
TTITLE1=When the Good Lord Talked To Jesus
TTITLE2=Qualified
TTITLE3=Sun Is Rising
TTITLE4=Someday My Peace Will Come
TTITLE5=Got To Be Moving On
TTITLE6=Ain't Going Down This Way
TTITLE7=Changing Times
TTITLE8=The Hustler
TTITLE9=Give That Girl A Diamond
EXTD=
EXTT0=
EXTT1=
EXTT2=
EXTT3=
EXTT4=
EXTT5=
EXTT6=
EXTT7=
EXTT8=
EXTT9=
PLAYORDER=
